<?xml version="1.0" encoding="UTF-8"?>
<svg width="300" height="220" viewBox="0 0 300 220" xmlns="http://www.w3.org/2000/svg">

  <!-- Fondo blanco -->
  <rect width="100%" height="100%" fill="white"/>

  <!-- Círculo central con check -->
  <circle cx="150" cy="110" r="38" fill="#07C2A9"/>
  <path d="M135 110 l12 12 l20 -24"
        stroke="white" stroke-width="6" fill="none" stroke-linecap="round" stroke-linejoin="round"/>

  <!-- Pastilla amarilla (círculo) arriba izq -->
  <circle cx="80" cy="40" r="10" fill="#FFD42A"/>

  <!-- Pastilla verde clara (círculo) arriba der -->
  <circle cx="220" cy="40" r="10" fill="#3DDDC7"/>

  <!-- Pastilla amarilla (cápsula) abajo izq -->
  <rect x="85" y="165" width="30" height="14" rx="7" ry="7" fill="#FFD42A"/>
  <line x1="100" y1="165" x2="100" y2="179" stroke="white" stroke-width="2"/>

  <!-- Pastilla verde clara (cápsula) abajo der -->
  <rect x="185" y="165" width="30" height="14" rx="7" ry="7" fill="#3DDDC7"/>
  <line x1="200" y1="165" x2="200" y2="179" stroke="white" stroke-width="2"/>

  <!-- Blíster izquierdo -->
  <rect x="20" y="70" width="70" height="70" rx="6" ry="6" fill="none" stroke="#07C2A9" stroke-width="2" transform="rotate(-15,55,105)"/>
  <circle cx="40" cy="90" r="12" fill="#07C2A9" transform="rotate(-15,55,105)"/>
  <circle cx="70" cy="90" r="12" fill="#07C2A9" transform="rotate(-15,55,105)"/>
  <circle cx="40" cy="120" r="12" fill="#07C2A9" transform="rotate(-15,55,105)"/>
  <circle cx="70" cy="120" r="12" fill="#07C2A9" transform="rotate(-15,55,105)"/>

  <!-- Blíster derecho -->
  <rect x="210" y="70" width="70" height="70" rx="6" ry="6" fill="none" stroke="#07C2A9" stroke-width="2" transform="rotate(15,245,105)"/>
  <circle cx="230" cy="90" r="12" fill="#07C2A9" transform="rotate(15,245,105)"/>
  <circle cx="260" cy="90" r="12" fill="#07C2A9" transform="rotate(15,245,105)"/>
  <circle cx="230" cy="120" r="12" fill="#07C2A9" transform="rotate(15,245,105)"/>
  <circle cx="260" cy="120" r="12" fill="#07C2A9" transform="rotate(15,245,105)"/>

</svg>